<svg id="Layer_1" viewBox="0 0 32 32" xmlns="http://www.w3.org/2000/svg" width="300" height="300">
    <g width="100%" height="100%" transform="matrix(1,0,0,1,0,0)">
        <path
            d="m23.23 19.63a4 4 0 0 0 -2.81-6 4 4 0 0 0 .58-2.02c0-1.59-1.44-2.15-2.21-2.45a3.74 3.74 0 0 1 -.59-.26 3.62 3.62 0 0 1 -.73-3.06 1 1 0 0 0 -1.37-1.14c-.21.1-5.08 2.38-5.08 6.91a4 4 0 0 0 .57 2 4 4 0 0 0 -3.19 6 4.21 4.21 0 0 0 .6 8.39h14a4.2 4.2 0 0 0 .23-8.37zm-7.77-12.19a4.83 4.83 0 0 0 1.35 2.87 3.56 3.56 0 0 0 1.28.71c.72.28.93.61.93.78a2.18 2.18 0 0 1 -2.02 2.2h-2a2.18 2.18 0 0 1 -2-2.2 5.89 5.89 0 0 1 2.46-4.36zm-3.66 8.56h8a2 2 0 1 1 0 4h-8a2 2 0 0 1 0-4zm11.2 10h-14a2 2 0 0 1 0-4h14a2 2 0 0 1 0 4z"
            fill="currentColor" stroke="none" />
    </g>
</svg>